<?xml version="1.0" standalone="no"?>
<!DOCTYPE svg PUBLIC "-//W3C//DTD SVG 20010904//EN"
 "http://www.w3.org/TR/2001/REC-SVG-20010904/DTD/svg10.dtd">
<svg version="1.0" xmlns="http://www.w3.org/2000/svg"
 width="1251.000000pt" height="1251.000000pt" viewBox="0 0 1251.000000 1251.000000"
 preserveAspectRatio="xMidYMid meet">
<metadata>
Created by potrace 1.11, written by Peter Selinger 2001-2013
</metadata>
<g transform="translate(0.000000,1251.000000) scale(0.100000,-0.100000)"
fill="#000000" stroke="none">
<path d="M4679 11266 c-2 -2 -47 -6 -99 -10 -153 -10 -199 -15 -308 -32 -57
-9 -113 -17 -125 -19 -170 -21 -469 -104 -662 -184 -58 -23 -229 -111 -295
-149 -86 -51 -241 -169 -315 -239 -126 -120 -270 -310 -359 -476 -132 -246
-251 -634 -292 -947 -3 -25 -7 -56 -10 -70 -2 -14 -6 -54 -10 -90 -3 -36 -7
-78 -9 -95 -17 -121 -20 -546 -20 -2745 0 -2180 3 -2660 20 -2761 2 -13 6 -49
10 -79 8 -74 13 -118 21 -160 3 -19 7 -46 9 -60 7 -47 45 -222 50 -229 2 -4 7
-23 10 -41 19 -107 130 -395 207 -539 166 -307 404 -554 698 -723 121 -70 358
-174 440 -194 8 -2 53 -15 100 -29 109 -33 348 -81 492 -100 103 -13 161 -18
348 -31 80 -5 800 -5 1080 1 481 9 836 20 1295 40 44 2 139 6 210 9 72 3 162
8 200 11 39 2 124 7 190 10 66 4 152 8 190 11 39 2 111 6 160 9 118 7 236 14
310 20 33 2 103 7 155 10 52 3 115 8 140 10 43 4 142 11 280 20 77 5 162 12
251 20 35 3 89 7 119 10 75 6 184 15 250 21 30 2 82 6 115 9 84 7 260 23 335
30 58 6 139 14 216 20 34 3 79 7 100 10 37 4 60 7 209 20 33 3 76 8 95 10 47
5 173 18 290 29 30 3 76 8 101 11 l46 6 0 2715 0 2714 -2186 0 -2186 0 0 -839
c0 -462 3 -843 7 -847 5 -4 416 -8 915 -8 l908 -1 1 -1018 c1 -560 -2 -1019
-5 -1021 -3 -2 -80 -7 -171 -10 -91 -4 -201 -9 -245 -11 -89 -5 -279 -12 -545
-20 -96 -3 -240 -8 -320 -10 -565 -17 -1690 -25 -1799 -12 -89 10 -217 56
-287 101 -156 104 -250 256 -282 461 -9 57 -9 4737 1 4814 44 372 248 592 609
658 85 15 286 16 2415 17 l2323 1 0 988 0 987 -2694 0 c-1481 0 -2695 -2
-2697 -4z"/>
</g>
</svg>
